<svg xmlns="http://www.w3.org/2000/svg" xmlns:xlink="http://www.w3.org/1999/xlink" width="500" zoomAndPan="magnify" viewBox="0 0 375 374.999991" height="500" preserveAspectRatio="xMidYMid meet" version="1.0"><defs><g/><clipPath id="id1"><path d="M 40.75 40.75 L 334 40.75 L 334 334 L 40.75 334 Z M 40.75 40.75 " clip-rule="nonzero"/></clipPath></defs><rect x="-37.5" width="450" fill="#ffffff" y="-37.499999" height="449.999989" fill-opacity="1"/><rect x="-37.5" width="450" fill="#ffffff" y="-37.499999" height="449.999989" fill-opacity="1"/><rect x="-37.5" width="450" fill="#000000" y="-37.499999" height="449.999989" fill-opacity="1"/><g clip-path="url(#id1)"><path fill="#ffffff" d="M 187.375 40.75 C 106.394531 40.75 40.75 106.394531 40.75 187.375 C 40.75 268.355469 106.394531 334 187.375 334 C 268.355469 334 334 268.355469 334 187.375 C 334 106.394531 268.355469 40.75 187.375 40.75 " fill-opacity="1" fill-rule="nonzero"/></g><path fill="#000000" d="M 285.820312 214.769531 C 282.433594 209.722656 275.191406 206.289062 271.097656 202.726562 C 266.320312 201.652344 262.191406 199.261719 258.050781 197.371094 C 253.675781 195.375 249.355469 193.742188 245 192.019531 C 231.769531 186.773438 219.15625 180.839844 210.203125 171.605469 C 207.105469 168.410156 204.40625 164.480469 202.507812 160.898438 C 201.355469 158.726562 200.46875 154.847656 198.828125 153.871094 C 196.035156 152.214844 190.890625 153.707031 188.121094 152.535156 C 190.714844 143.277344 180.566406 139.953125 181.09375 132.457031 C 181.605469 125.214844 190.011719 125.378906 193.472656 129.445312 C 194.601562 130.769531 195.277344 134.34375 198.492188 133.128906 C 199.601562 131.230469 197.304688 129.140625 196.152344 127.773438 C 194.710938 126.066406 192.96875 124.355469 190.796875 123.757812 C 185.226562 122.230469 178.675781 125.289062 178.082031 131.789062 C 177.210938 141.355469 186.667969 141.859375 185.445312 152.535156 C 181.234375 153.628906 176.101562 152.296875 173.734375 153.871094 C 172.277344 154.839844 170.125 160.882812 168.714844 163.242188 C 166.835938 166.386719 164.316406 169.84375 162.355469 171.941406 C 151.992188 183.050781 135.949219 187.445312 120.867188 194.027344 C 115.464844 196.382812 109.984375 199.195312 104.472656 202.058594 C 97.042969 205.917969 88.828125 209.671875 86.40625 217.113281 C 85.753906 219.113281 84.734375 224.074219 87.410156 226.484375 C 91.261719 227.53125 94.878906 222.078125 99.121094 221.128906 C 101.214844 220.660156 105.054688 221.128906 108.488281 221.128906 L 120.199219 221.128906 C 157.132812 221.128906 208.34375 221.464844 253.03125 221.464844 C 260.679688 221.464844 269.359375 220.554688 275.113281 221.796875 C 279.3125 222.703125 282.117188 227.996094 287.160156 227.484375 C 290.21875 223.3125 287.945312 217.9375 285.820312 214.769531 Z M 195.816406 130.449219 C 193.921875 128.105469 192.339844 125.449219 188.453125 125.097656 C 192.097656 124.355469 194.597656 127.652344 195.816406 130.449219 Z M 185.441406 124.761719 C 186.140625 124.574219 188 124.605469 188.121094 124.761719 C 188.449219 125.199219 186.414062 124.960938 186.113281 125.097656 C 184.898438 125.640625 181.496094 127.164062 180.425781 128.777344 C 181.546875 126.523438 184.113281 125.117188 185.441406 124.761719 Z M 179.753906 129.445312 C 181.101562 129.578125 179.503906 131.925781 179.421875 132.792969 C 181.265625 139.96875 187.820312 143.882812 187.117188 152.535156 C 185.46875 151.0625 186.453125 149.972656 186.113281 148.183594 C 184.832031 141.46875 177.066406 138.234375 179.753906 129.445312 Z M 198.492188 154.875 C 202.546875 162.761719 205.953125 169.558594 212.210938 175.289062 C 222.089844 184.332031 239.140625 190.019531 253.03125 196.035156 C 259.4375 198.808594 264.003906 201.277344 270.429688 203.730469 C 276.121094 208.074219 283.265625 210.96875 285.488281 218.789062 C 270.949219 197.410156 231.84375 194.929688 212.210938 177.964844 C 205.796875 172.421875 201.945312 165.734375 197.824219 157.21875 C 192.253906 155.304688 183.371094 154.015625 177.414062 156.214844 C 173.746094 157.570312 173.742188 161.128906 171.390625 163.578125 C 170.035156 163.074219 172.375 160.878906 172.730469 159.894531 C 171.691406 150.742188 190.550781 153.316406 198.492188 154.875 Z M 95.105469 208.078125 C 118.128906 192.226562 156.230469 188.582031 170.050781 162.90625 C 171.121094 164.316406 169.148438 165.804688 168.378906 167.257812 C 169.894531 166.988281 170.089844 165.398438 170.722656 164.246094 C 164.550781 179.082031 149.65625 184.953125 133.582031 191.683594 C 126.199219 194.773438 118.632812 198.09375 110.832031 201.722656 C 101.863281 205.890625 91.71875 210.117188 88.078125 219.121094 C 87.90625 214.277344 91.792969 210.359375 95.105469 208.078125 Z M 93.097656 222.800781 C 92.90625 223.398438 92.167969 222.851562 92.761719 222.800781 C 111.777344 212.257812 130.320312 201.246094 149.644531 191.015625 C 131.109375 201.921875 112.199219 212.460938 93.097656 222.800781 Z M 186.113281 171.941406 C 189.238281 172.703125 190.441406 173.121094 194.714844 175.941406 C 197.992188 178.097656 200.636719 179.699219 203.511719 181.308594 C 224.328125 192.96875 246.511719 204.800781 266.75 217.449219 C 249.089844 216.855469 226.832031 217.402344 208.238281 217.492188 L 197.4375 217.40625 C 171.953125 216.734375 141.0625 216.976562 106.8125 216.777344 C 132.785156 201.375 160.003906 187.214844 186.109375 171.941406 Z M 149.976562 191.015625 C 152.746094 189.101562 155.683594 187.351562 159.011719 185.996094 C 157.878906 186.898438 152.839844 189.617188 149.976562 191.015625 Z M 159.679688 185.660156 C 162.265625 183.671875 165.285156 182.117188 168.378906 180.640625 C 165.785156 182.617188 162.714844 184.125 159.679688 185.660156 Z M 103.804688 219.789062 C 105.367188 219.96875 110.390625 218.5 112.167969 220.125 C 110.03125 219.734375 105.039062 220.644531 103.804688 219.789062 Z M 112.503906 219.457031 C 116.945312 219.679688 118.917969 219.605469 122.539062 219.789062 C 120.066406 220.140625 114.429688 220.769531 112.503906 219.457031 Z M 123.210938 219.789062 L 125.21875 219.789062 C 150.296875 219.570312 177.105469 220.246094 202.84375 219.457031 C 177.070312 219.285156 141.308594 219.582031 103.804688 218.785156 C 106.285156 217.050781 113.355469 217.304688 118.859375 217.449219 C 134.824219 217.863281 157.699219 217.96875 179.746094 217.742188 L 179.945312 217.835938 L 220.300781 218.171875 L 220.242188 218.070312 C 231.664062 218.246094 242.859375 218.21875 252.695312 218.117188 C 258.414062 218.058594 264.53125 217.375 269.761719 219.121094 C 244.773438 219.816406 225.214844 219.023438 203.175781 219.457031 C 227.441406 220.332031 253.152344 219.378906 271.433594 220.125 C 216.339844 220.640625 170.847656 220.738281 123.210938 219.789062 Z M 286.15625 225.8125 C 258.808594 210.445312 231.746094 194.789062 204.515625 179.300781 L 202.171875 179.300781 C 197.535156 175.914062 191.972656 173.441406 186.78125 170.601562 C 181.171875 173.355469 176.023438 176.574219 170.722656 179.636719 C 162.527344 181.578125 154.710938 187.292969 147.636719 191.347656 C 127.6875 202.78125 107.300781 213.492188 87.410156 224.476562 C 90.558594 209.828125 106.847656 203.542969 119.863281 198.039062 C 130.464844 193.558594 141.273438 189.65625 150.3125 184.992188 C 151.066406 185.769531 148.320312 185.882812 148.304688 187 C 156.695312 182.34375 165.660156 175.179688 171.390625 165.25 C 172.917969 162.601562 175.148438 157.121094 177.75 156.882812 C 181.550781 156.539062 183.3125 161.066406 187.117188 161.570312 C 186.722656 160.175781 184.976562 160.140625 184.105469 159.226562 C 186.0625 159.058594 188.253906 161.542969 190.460938 162.238281 C 188.6875 159.886719 185.546875 158.898438 182.765625 157.554688 C 182.535156 158.453125 183.460938 158.199219 183.769531 158.558594 C 182.652344 159.105469 181.265625 157.054688 179.753906 156.882812 C 185.332031 155.210938 192.988281 155.585938 197.488281 157.886719 C 200.242188 163.640625 202.820312 168.835938 206.523438 173.28125 C 221.800781 191.617188 253.097656 193.785156 272.101562 208.414062 L 273.777344 208.414062 C 277.722656 212.164062 282.648438 214.933594 284.816406 220.457031 C 283.375 220.226562 282.761719 219.167969 281.472656 218.785156 C 282.988281 221.09375 287.347656 221.855469 286.15625 225.8125 Z M 286.15625 225.8125 " fill-opacity="1" fill-rule="nonzero"/><g fill="#000000" fill-opacity="1"><g transform="translate(122.963385, 260.316037)"><g><path d="M 4.390625 -15.921875 C 6.117188 -17.660156 8.363281 -18.53125 11.125 -18.53125 C 13.894531 -18.53125 16.144531 -17.660156 17.875 -15.921875 C 19.613281 -14.179688 20.484375 -11.898438 20.484375 -9.078125 C 20.484375 -6.265625 19.613281 -3.988281 17.875 -2.25 C 16.144531 -0.507812 13.894531 0.359375 11.125 0.359375 C 8.363281 0.359375 6.117188 -0.507812 4.390625 -2.25 C 2.671875 -3.988281 1.8125 -6.265625 1.8125 -9.078125 C 1.8125 -11.898438 2.671875 -14.179688 4.390625 -15.921875 Z M 5.828125 -2.796875 C 7.171875 -1.210938 8.941406 -0.421875 11.140625 -0.421875 C 13.347656 -0.421875 15.125 -1.210938 16.46875 -2.796875 C 17.8125 -4.390625 18.484375 -6.484375 18.484375 -9.078125 C 18.484375 -10.796875 18.175781 -12.3125 17.5625 -13.625 C 16.957031 -14.9375 16.097656 -15.953125 14.984375 -16.671875 C 13.867188 -17.390625 12.585938 -17.75 11.140625 -17.75 C 8.941406 -17.75 7.171875 -16.953125 5.828125 -15.359375 C 4.484375 -13.765625 3.8125 -11.671875 3.8125 -9.078125 C 3.8125 -6.484375 4.484375 -4.390625 5.828125 -2.796875 Z M 5.828125 -2.796875 "/></g></g></g><g fill="#000000" fill-opacity="1"><g transform="translate(149.778351, 260.316037)"><g><path d="M 20.1875 -17.90625 C 19.757812 -17.90625 19.390625 -17.753906 19.078125 -17.453125 C 18.765625 -17.148438 18.597656 -16.78125 18.578125 -16.34375 L 18.578125 -2.953125 C 18.578125 -1.953125 18.640625 -1.003906 18.765625 -0.109375 L 18.8125 0.359375 L 18.578125 0.359375 L 4.4375 -14.734375 L 4.4375 -1.8125 C 4.457031 -1.207031 4.726562 -0.757812 5.25 -0.46875 C 5.488281 -0.332031 5.742188 -0.265625 6.015625 -0.265625 L 6.515625 -0.265625 L 6.515625 0 L 1.171875 0 L 1.171875 -0.265625 L 1.65625 -0.265625 C 2.09375 -0.265625 2.46875 -0.414062 2.78125 -0.71875 C 3.09375 -1.019531 3.25 -1.394531 3.25 -1.84375 L 3.25 -15.3125 C 3.25 -16.363281 3.1875 -17.304688 3.0625 -18.140625 L 3.015625 -18.5625 L 3.265625 -18.5625 L 17.421875 -3.453125 L 17.421875 -16.328125 C 17.398438 -16.773438 17.234375 -17.148438 16.921875 -17.453125 C 16.609375 -17.753906 16.238281 -17.90625 15.8125 -17.90625 L 15.3125 -17.90625 L 15.3125 -18.171875 L 20.65625 -18.171875 L 20.65625 -17.90625 Z M 20.1875 -17.90625 "/></g></g></g><g fill="#000000" fill-opacity="1"><g transform="translate(176.671195, 260.316037)"><g><path d="M 1.890625 -0.265625 C 2.335938 -0.265625 2.722656 -0.421875 3.046875 -0.734375 C 3.367188 -1.054688 3.539062 -1.441406 3.5625 -1.890625 L 3.5625 -16.265625 C 3.539062 -16.722656 3.367188 -17.109375 3.046875 -17.421875 C 2.722656 -17.742188 2.335938 -17.90625 1.890625 -17.90625 L 1.5625 -17.90625 L 1.5625 -18.171875 L 7.234375 -18.171875 L 7.234375 -17.90625 L 6.90625 -17.90625 C 6.28125 -17.90625 5.800781 -17.640625 5.46875 -17.109375 C 5.320312 -16.847656 5.25 -16.566406 5.25 -16.265625 L 5.25 -0.796875 L 8.953125 -0.796875 C 10.234375 -0.796875 11.210938 -1.082031 11.890625 -1.65625 C 12.566406 -2.226562 13.128906 -3.078125 13.578125 -4.203125 L 13.828125 -4.203125 L 12.328125 0 L 1.5625 0 L 1.5625 -0.265625 Z M 1.890625 -0.265625 "/></g></g></g><g fill="#000000" fill-opacity="1"><g transform="translate(196.321868, 260.316037)"><g><path d="M 1.890625 -0.265625 C 2.335938 -0.265625 2.722656 -0.421875 3.046875 -0.734375 C 3.367188 -1.054688 3.539062 -1.441406 3.5625 -1.890625 L 3.5625 -16.296875 C 3.539062 -16.742188 3.367188 -17.125 3.046875 -17.4375 C 2.722656 -17.75 2.335938 -17.90625 1.890625 -17.90625 L 1.5625 -17.90625 L 1.5625 -18.171875 L 7.234375 -18.171875 L 7.234375 -17.90625 L 6.90625 -17.90625 C 6.457031 -17.90625 6.070312 -17.75 5.75 -17.4375 C 5.425781 -17.125 5.257812 -16.742188 5.25 -16.296875 L 5.25 -1.890625 C 5.25 -1.441406 5.410156 -1.054688 5.734375 -0.734375 C 6.066406 -0.421875 6.457031 -0.265625 6.90625 -0.265625 L 7.234375 -0.265625 L 7.234375 0 L 1.5625 0 L 1.5625 -0.265625 Z M 1.890625 -0.265625 "/></g></g></g><g fill="#000000" fill-opacity="1"><g transform="translate(210.158036, 260.316037)"><g><path d="M 20.1875 -17.90625 C 19.757812 -17.90625 19.390625 -17.753906 19.078125 -17.453125 C 18.765625 -17.148438 18.597656 -16.78125 18.578125 -16.34375 L 18.578125 -2.953125 C 18.578125 -1.953125 18.640625 -1.003906 18.765625 -0.109375 L 18.8125 0.359375 L 18.578125 0.359375 L 4.4375 -14.734375 L 4.4375 -1.8125 C 4.457031 -1.207031 4.726562 -0.757812 5.25 -0.46875 C 5.488281 -0.332031 5.742188 -0.265625 6.015625 -0.265625 L 6.515625 -0.265625 L 6.515625 0 L 1.171875 0 L 1.171875 -0.265625 L 1.65625 -0.265625 C 2.09375 -0.265625 2.46875 -0.414062 2.78125 -0.71875 C 3.09375 -1.019531 3.25 -1.394531 3.25 -1.84375 L 3.25 -15.3125 C 3.25 -16.363281 3.1875 -17.304688 3.0625 -18.140625 L 3.015625 -18.5625 L 3.265625 -18.5625 L 17.421875 -3.453125 L 17.421875 -16.328125 C 17.398438 -16.773438 17.234375 -17.148438 16.921875 -17.453125 C 16.609375 -17.753906 16.238281 -17.90625 15.8125 -17.90625 L 15.3125 -17.90625 L 15.3125 -18.171875 L 20.65625 -18.171875 L 20.65625 -17.90625 Z M 20.1875 -17.90625 "/></g></g></g><g fill="#000000" fill-opacity="1"><g transform="translate(237.050875, 260.316037)"><g><path d="M 1.890625 -0.265625 C 2.335938 -0.265625 2.722656 -0.421875 3.046875 -0.734375 C 3.367188 -1.054688 3.539062 -1.441406 3.5625 -1.890625 L 3.5625 -16.421875 C 3.507812 -16.835938 3.328125 -17.1875 3.015625 -17.46875 C 2.703125 -17.757812 2.328125 -17.90625 1.890625 -17.90625 L 1.578125 -17.90625 L 1.5625 -18.171875 L 9.15625 -18.171875 C 9.695312 -18.171875 10.28125 -18.222656 10.90625 -18.328125 C 11.539062 -18.429688 11.988281 -18.535156 12.25 -18.640625 L 12.25 -15.359375 L 11.984375 -15.359375 L 11.984375 -15.828125 C 11.984375 -16.242188 11.84375 -16.597656 11.5625 -16.890625 C 11.28125 -17.191406 10.9375 -17.347656 10.53125 -17.359375 L 5.25 -17.359375 L 5.25 -9.34375 L 9.625 -9.34375 C 9.96875 -9.363281 10.257812 -9.492188 10.5 -9.734375 C 10.75 -9.972656 10.875 -10.273438 10.875 -10.640625 L 10.875 -11 L 11.140625 -11 L 11.140625 -6.90625 L 10.875 -6.90625 L 10.875 -7.296875 C 10.875 -7.640625 10.753906 -7.929688 10.515625 -8.171875 C 10.285156 -8.410156 10 -8.539062 9.65625 -8.5625 L 5.25 -8.5625 L 5.25 -0.796875 L 8.953125 -0.796875 C 10.234375 -0.796875 11.210938 -1.082031 11.890625 -1.65625 C 12.566406 -2.226562 13.128906 -3.078125 13.578125 -4.203125 L 13.828125 -4.203125 L 12.328125 0 L 1.5625 0 L 1.5625 -0.265625 Z M 1.890625 -0.265625 "/></g></g></g><g fill="#000000" fill-opacity="1"><g transform="translate(148.495968, 104.366848)"><g><path d="M 0.296875 -6.859375 L -2.0625 -6.03125 L -2.359375 -6.890625 L 3.3125 -8.875 L 3.609375 -8.015625 L 1.25 -7.1875 L 3.359375 -1.171875 L 2.40625 -0.84375 Z M 0.296875 -6.859375 "/></g></g></g><g fill="#000000" fill-opacity="1"><g transform="translate(161.90974, 100.242989)"><g><path d="M -0.546875 -7.34375 L 0.484375 -7.578125 L 2.09375 -0.46875 L 1.0625 -0.234375 Z M -0.546875 -7.34375 "/></g></g></g><g fill="#000000" fill-opacity="1"><g transform="translate(172.852925, 98.136904)"><g><path d="M 6.25 -1.5625 L 6.34375 -0.65625 L 1.09375 -0.109375 L 0.34375 -7.34375 L 5.453125 -7.875 L 5.546875 -6.984375 L 1.46875 -6.5625 L 1.6875 -4.34375 L 5.3125 -4.71875 L 5.40625 -3.828125 L 1.78125 -3.453125 L 2.03125 -1.125 Z M 6.25 -1.5625 "/></g></g></g><g fill="#000000" fill-opacity="1"><g transform="translate(187.625226, 97.098209)"><g><path d="M 7.625 -7.015625 L 7.359375 0.265625 L 6.5 0.234375 L 2.34375 -5.359375 L 2.140625 0.078125 L 1.09375 0.046875 L 1.359375 -7.234375 L 2.21875 -7.203125 L 6.375 -1.625 L 6.578125 -7.046875 Z M 7.625 -7.015625 "/></g></g></g><g fill="#000000" fill-opacity="1"><g transform="translate(203.842761, 98.272763)"><g><path d="M 2.421875 -6.953125 L 5.421875 -6.390625 C 6.179688 -6.242188 6.828125 -5.96875 7.359375 -5.5625 C 7.890625 -5.15625 8.265625 -4.648438 8.484375 -4.046875 C 8.710938 -3.453125 8.757812 -2.800781 8.625 -2.09375 C 8.488281 -1.394531 8.207031 -0.800781 7.78125 -0.3125 C 7.363281 0.164062 6.832031 0.5 6.1875 0.6875 C 5.539062 0.882812 4.835938 0.910156 4.078125 0.765625 L 1.078125 0.203125 Z M 4.203125 -0.140625 C 4.785156 -0.0234375 5.316406 -0.0351562 5.796875 -0.171875 C 6.273438 -0.316406 6.671875 -0.570312 6.984375 -0.9375 C 7.296875 -1.300781 7.503906 -1.75 7.609375 -2.28125 C 7.703125 -2.8125 7.664062 -3.300781 7.5 -3.75 C 7.34375 -4.195312 7.066406 -4.570312 6.671875 -4.875 C 6.273438 -5.1875 5.785156 -5.398438 5.203125 -5.515625 L 3.28125 -5.875 L 2.28125 -0.5 Z M 4.203125 -0.140625 "/></g></g></g><g fill="#000000" fill-opacity="1"><g transform="translate(219.857083, 101.883151)"><g><path d="M 6.015625 0.125 L 2.359375 -1.125 L 1 0.34375 L -0.015625 0 L 5.46875 -5.828125 L 6.4375 -5.5 L 7.21875 2.46875 L 6.171875 2.109375 Z M 5.9375 -0.78125 L 5.609375 -4.65625 L 2.96875 -1.796875 Z M 5.9375 -0.78125 "/></g></g></g></svg>